<svg width="444" height="273" viewBox="0 0 444 273" fill="none" xmlns="http://www.w3.org/2000/svg">
<path fill-rule="evenodd" clip-rule="evenodd" d="M233.674 185.263C349.256 144.908 437.493 90.1726 430.757 63.009C424.021 35.8455 324.862 46.5396 209.28 86.8952C93.6978 127.251 5.4607 181.986 12.1968 209.149C18.9329 236.313 118.091 225.619 233.674 185.263ZM231.037 167.442C332.999 131.842 411.515 90.3882 406.8 71.3737C402.085 52.3592 315.606 65.8042 213.645 101.404C111.683 137.004 32.8499 181.278 37.5652 200.292C42.2805 219.307 129.076 203.042 231.037 167.442Z" fill="#FFD801"/>
<circle cx="221.714" cy="136.119" r="136.119" fill="#FB2900"/>
<path fill-rule="evenodd" clip-rule="evenodd" d="M231.051 167.286C333.012 131.686 411.586 90.4525 406.871 71.438C406.624 70.4437 406.154 69.5381 405.47 68.7199C418.724 62.3672 429.495 57.9168 430.812 63.2255C437.548 90.3891 349.311 145.124 233.729 185.48C118.147 225.835 18.988 236.529 12.2519 209.366C10.4933 202.274 20.752 199.791 37.5055 197.607C37.3798 198.574 37.4214 199.491 37.6359 200.356C42.3512 219.371 129.09 202.886 231.051 167.286Z" fill="#FFD801"/>
</svg>
