<svg width="444" height="273" viewBox="0 0 444 273" fill="none" xmlns="http://www.w3.org/2000/svg">
<path fill-rule="evenodd" clip-rule="evenodd" d="M234.576 185.66C350.158 145.305 438.395 90.5696 431.659 63.406C424.923 36.2424 325.764 46.9366 210.182 87.2921C94.6002 127.648 6.36305 182.383 13.0992 209.546C19.8353 236.71 118.994 226.016 234.576 185.66ZM231.94 167.839C333.901 132.239 412.418 90.7852 407.702 71.7707C402.987 52.7561 316.509 66.2012 214.547 101.801C112.586 137.401 33.7523 181.675 38.4676 200.689C43.1828 219.704 129.978 203.439 231.94 167.839Z" fill="#FB2900"/>
<circle cx="222.616" cy="136.516" r="136.119" fill="#FFD801"/>
<path fill-rule="evenodd" clip-rule="evenodd" d="M231.953 167.683C333.915 132.083 412.488 90.8495 407.773 71.835C407.526 70.8406 407.056 69.9351 406.372 69.1168C419.626 62.7642 430.398 58.3138 431.714 63.6225C438.45 90.7861 350.213 145.521 234.631 185.877C119.049 226.232 19.8904 236.926 13.1543 209.763C11.3956 202.671 21.6544 200.187 38.4078 198.004C38.2821 198.971 38.3237 199.888 38.5383 200.753C43.2535 219.768 129.992 203.283 231.953 167.683Z" fill="#FB2900"/>
</svg>
