<svg width="149" height="113" viewBox="0 0 149 113" fill="none" xmlns="http://www.w3.org/2000/svg">
<path fill-rule="evenodd" clip-rule="evenodd" d="M80.7481 73.9482C121.438 53.7627 151.398 29.5442 147.666 19.8547C143.934 10.1651 107.922 18.6738 67.2325 38.8593C26.5423 59.0448 -3.41812 83.2634 0.314084 92.9529C4.04638 102.643 40.0579 94.1337 80.7481 73.9482ZM78.9549 67.5082C114.85 49.7015 141.844 30.8205 139.231 24.0378C136.619 17.2552 105.402 26.192 69.5072 43.9987C33.6121 61.8055 6.63128 81.7391 9.24388 88.5218C11.8564 95.3045 43.0598 85.315 78.9549 67.5082Z" fill="#FFD801"/>
<path d="M80.3544 106.498C108.03 103.032 127.656 77.7865 124.19 50.1107C120.724 22.4349 95.4787 2.80903 67.8029 6.27503C40.1271 9.74103 20.5012 34.9864 23.9672 62.6622C27.4332 90.338 52.6786 109.964 80.3544 106.498Z" fill="#FB2900"/>
<path fill-rule="evenodd" clip-rule="evenodd" d="M78.9546 67.5095C114.849 49.7027 141.875 30.9002 139.262 24.1175C139.119 23.7473 138.892 23.4239 138.583 23.1463C143.186 20.1843 146.964 18.0326 147.696 19.9314C151.428 29.6209 121.468 53.8396 80.7778 74.0251C40.0876 94.2106 4.07607 102.719 0.343768 93.0296C-0.630732 90.4996 3.03247 89.1123 9.10087 87.5359C9.09227 87.9203 9.14947 88.276 9.27477 88.6015C11.8874 95.3842 43.0595 85.3163 78.9546 67.5095Z" fill="#FFD801"/>
</svg>
